<svg class="border shadow-md w-fit h-fit object-cover" viewBox="0 0 304.92 542.08" xmlns="http://www.w3.org/2000/svg" preserveAspectRatio="none" style="width: 304.92px; height: 542.08px;"><rect class="bg" id="bg" x="0" y="0" width="304.92" height="542.08" fill="#ffffff"></rect><g transform="rotate(0 152.46 271.04)"><path d="M -252.46 -24.21 S -136.23 -71.21
            0.00 -24.21 116.23 -72.21
            252.46 -24.21 347.92 -51.31
            504.92 -24.21 621.15 -51.31
            757.38 -24.21 h 110 V 742.08 H -252.46 Z" fill="#292929" id="-1"></path><path d="M -252.46 30.00 S -158.00 -10.00
            0.00 30.00 4.46 2.90
            252.46 30.00 254.92 -17.00
            504.92 30.00 621.15 -9.00
            757.38 30.00 h 110 V 742.08 H -252.46 Z" fill="#303030" id="0"></path><path d="M -252.46 84.21 S -136.23 38.21
            0.00 84.21 61.46 57.10
            252.46 84.21 292.92 57.10
            504.92 84.21 621.15 57.10
            757.38 84.21 h 110 V 742.08 H -252.46 Z" fill="#373737" id="1"></path><path d="M -252.46 138.42 S -136.23 111.31
            0.00 138.42 83.46 111.31
            252.46 138.42 368.69 111.31
            504.92 138.42 538.38 111.31
            757.38 138.42 h 110 V 742.08 H -252.46 Z" fill="#3e3e3e" id="2"></path><path d="M -252.46 192.62 S -136.23 161.62
            0.00 192.62 116.23 145.62
            252.46 192.62 368.69 165.52
            504.92 192.62 530.38 165.52
            757.38 192.62 h 110 V 742.08 H -252.46 Z" fill="#454545" id="3"></path><path d="M -252.46 246.83 S -214.00 207.83
            0.00 246.83 110.46 211.83
            252.46 246.83 368.69 210.83
            504.92 246.83 621.15 209.83
            757.38 246.83 h 110 V 742.08 H -252.46 Z" fill="#4c4c4c" id="4"></path><path d="M -252.46 301.04 S -136.23 273.94
            0.00 301.04 116.23 273.94
            252.46 301.04 290.92 273.94
            504.92 301.04 539.38 248.04
            757.38 301.04 h 110 V 742.08 H -252.46 Z" fill="#535353" id="5"></path><path d="M -252.46 355.25 S -159.00 304.25
            0.00 355.25 116.23 319.25
            252.46 355.25 337.92 328.14
            504.92 355.25 525.38 328.14
            757.38 355.25 h 110 V 742.08 H -252.46 Z" fill="#5a5a5a" id="6"></path><path d="M -252.46 409.46 S -136.23 357.46
            0.00 409.46 116.23 372.46
            252.46 409.46 275.92 357.46
            504.92 409.46 507.38 382.35
            757.38 409.46 h 110 V 742.08 H -252.46 Z" fill="#616161" id="7"></path><path d="M -252.46 463.66 S -204.00 430.66
            0.00 463.66 81.46 436.56
            252.46 463.66 368.69 436.56
            504.92 463.66 615.38 436.56
            757.38 463.66 h 110 V 742.08 H -252.46 Z" fill="#686868" id="8"></path><path d="M -252.46 517.87 S -196.00 479.87
            0.00 517.87 47.46 484.87
            252.46 517.87 281.92 475.87
            504.92 517.87 621.15 490.77
            757.38 517.87 h 110 V 742.08 H -252.46 Z" fill="#6f6f6f" id="9"></path></g></svg>